<?xml version="1.0" encoding="utf-8"?>
<!-- Generator: Adobe Illustrator 28.1.0, SVG Export Plug-In . SVG Version: 6.00 Build 0)  -->
<svg version="1.1" id="Layer_1" xmlns="http://www.w3.org/2000/svg" xmlns:xlink="http://www.w3.org/1999/xlink" x="0px" y="0px"
	 viewBox="0 0 2000 484.4" style="enable-background:new 0 0 2000 484.4;" xml:space="preserve">
<style type="text/css">
	.st0{fill:#002D74;}
</style>
<g>
	<path class="st0" d="M361.61,217.01v35.61c0,18.85-12.04,35.71-29.8,41.98c-4.72,1.68-9.71,2.53-14.71,2.53H191.74
		c-1.66,0-3.03-1.37-3.03-3.03v-32.01c0-1.66,1.37-3.03,3.03-3.03h114.76c6.63-0.44,11.89-6,11.89-12.72v-23.1
		c0-7.02-5.73-12.76-12.74-12.76H160.75v136.85c0,1.68-1.37,3.03-3.03,3.03h-37.14c-1.68,0-3.03-1.35-3.03-3.03V175.53
		c0-1.68,1.35-3.05,3.03-3.05H317.1C341.57,172.48,361.61,192.52,361.61,217.01z"/>
	<path class="st0" d="M646.12,294.6l28.41,52.07c0.8,1.47,0.05,4.11-1.22,4.11l-43.42-0.37c-1.55,0-2.48-0.1-3.26-1.56l-28.31-51.66
		h-26.67c-0.2-0.02-0.39-0.02-0.59-0.02h-65.1c-1.68,0-3.03-1.37-3.03-3.03v-32.01c0-1.66,1.35-3.03,3.03-3.03h113.89
		c7.02,0,12.76-5.73,12.76-12.76v-23.1c0-7.02-5.73-12.76-12.76-12.76H474.96v136.88c0,1.68-1.35,3.03-3.03,3.03h-37.14
		c-1.66,0-3.03-1.35-3.03-3.03V175.54c0-1.66,1.37-3.03,3.03-3.03h196.52c24.49,0,44.51,20.04,44.51,44.52v35.6
		C675.81,271.47,663.81,288.31,646.12,294.6z"/>
	<path class="st0" d="M945.81,172.48H799.94c-29.68,0-53.96,24.27-53.96,53.96v69.97c0,29.68,24.27,53.96,53.96,53.96h145.87
		c29.7,0,53.97-24.27,53.97-53.96v-69.97C999.78,196.76,975.51,172.48,945.81,172.48z M956.56,293.56
		c0,10.35-8.49,18.85-18.85,18.85H808.05c-10.36,0-18.85-8.5-18.85-18.85v-64.27c0-10.34,8.49-18.85,18.85-18.85h129.66
		c10.36,0,18.85,8.5,18.85,18.85V293.56z"/>
	<path class="st0" d="M1569.23,243.85v31.9c0,1.66-1.37,3.03-3.03,3.03h-166.53c-1.66,0-3.03-1.37-3.03-3.03v-31.9
		c0-1.66,1.37-3.03,3.03-3.03h166.53C1567.86,240.82,1569.23,242.19,1569.23,243.85z"/>
	<path class="st0" d="M1368.68,229.29v64.25c0,10.36,8.49,18.87,18.85,18.87h178.67c1.66,0,3.03,1.35,3.03,3.03v31.88
		c0,1.68-1.37,3.03-3.03,3.03h-186.76c-29.7,0-53.96-24.26-53.96-53.96v-69.95c0-29.68,24.26-53.96,53.96-53.96h186.76
		c1.66,0,3.03,1.37,3.03,3.03v31.9c0,1.66-1.37,3.03-3.03,3.03h-178.67C1377.17,210.44,1368.68,218.93,1368.68,229.29z"/>
	<path class="st0" d="M1883.45,175.53v171.79c0,1.68-1.35,3.05-3.03,3.05h-51.82c-13.62,0-25.32-5.46-34.08-15.9l-8.03-9.58
		c-0.05-0.05-0.08-0.1-0.11-0.13l-82.99-98.89l-4.71-5.62c-2.49-2.98-5.88-4.56-9.77-4.56h-6.29v131.63c0,1.68-1.37,3.05-3.05,3.05
		h-37.14c-1.66,0-3.03-1.37-3.03-3.05V175.53c0-1.68,1.37-3.05,3.03-3.05h51.82c13.64,0,25.33,5.47,34.1,15.9l8.03,9.58
		c0.03,0.05,0.08,0.1,0.11,0.13l82.97,98.89l4.71,5.62c2.51,2.98,5.9,4.56,9.77,4.56h6.3V175.53c0-1.68,1.37-3.05,3.03-3.05h37.14
		C1882.1,172.48,1883.45,173.85,1883.45,175.53z"/>
	<g>
		<g>
			<path class="st0" d="M1883.45,96.68v31.25c0,1.73-1.38,3.11-3.1,3.11h-558.14c-1.12,0-2.17,0.6-2.72,1.6l-128.28,241.14
				c-6.01,10.26-16.7,16.39-28.59,16.42h-0.08c-11.84,0-22.53-6.08-28.57-16.29l-0.21-0.34l-129.52-240.95
				c-0.55-0.98-1.58-1.58-2.7-1.58h-880.9c-1.71,0-3.1-1.38-3.1-3.11V96.68c0-1.73,1.38-3.11,3.1-3.11h885.19
				c11.68,0,22.64,6.24,28.59,16.29l0.21,0.34l125.18,233.27c1.21,2.12,4.24,2.12,5.42,0l123.99-233.49
				c5.95-10.13,16.93-16.42,28.67-16.42h562.46C1882.07,93.57,1883.45,94.95,1883.45,96.68z"/>
		</g>
	</g>
</g>
</svg>
